<?xml version="1.0" encoding="utf-8"?>
<!-- Generator: Adobe Illustrator 24.0.1, SVG Export Plug-In . SVG Version: 6.00 Build 0)  -->
<svg version="1.1" id="Слой_1" xmlns="http://www.w3.org/2000/svg" xmlns:xlink="http://www.w3.org/1999/xlink" x="0px" y="0px"
	 viewBox="0 0 32 29" style="enable-background:new 0 0 32 29;" xml:space="preserve">
<style type="text/css">
	.st0{fill:#F16D7F;}
</style>
<g>
	<g transform="translate(-1181 -40)">
		<g>
			<path id="zvx0a" class="st0" d="M1181,41.2c0-0.7,0.5-1.2,1.2-1.2h4.3c0.5,0,1,0.3,1.2,0.9l4.8,17.5h13.2l4.4-10h-14.6
				c-0.7,0-1.2-0.5-1.2-1.2s0.5-1.2,1.2-1.2h16.4c0.4,0,0.8,0.2,1,0.5c0.2,0.3,0.3,0.8,0.1,1.1l-5.4,12.4c-0.2,0.4-0.6,0.7-1.1,0.7
				h-14.8c-0.5,0-1-0.3-1.1-0.9l-4.8-17.5h-3.4C1181.5,42.4,1181,41.8,1181,41.2L1181,41.2z M1187.8,66.3c0-1.5,1.2-2.7,2.7-2.7
				c1.5,0,2.7,1.2,2.7,2.7c0,0,0,0,0,0c0,1.5-1.2,2.7-2.7,2.7C1188.9,69,1187.7,67.8,1187.8,66.3z M1204.5,66.5
				c-0.1-1.5,1-2.8,2.5-2.9c1.5-0.1,2.8,1,2.9,2.5c0.1,1.5-1,2.8-2.5,2.9c0,0,0,0,0,0h-0.2C1205.8,69,1204.6,67.9,1204.5,66.5z"/>
		</g>
	</g>
</g>
</svg>
